<svg xmlns="http://www.w3.org/2000/svg" viewBox="0 0 64 64" role="img" aria-label="File Wala Raja icon">
  <rect width="64" height="64" rx="12" fill="#ffffff"/>
  <path d="M18 14 29 12c2 0 3 0 4 1l10 8c1 1 1 2 1 3v23c0 2-1 3-3 4L16 56c-2 0-4-1-4-3L9 20c0-3 1-5 4-6z" fill="#fff" stroke="#1f2128" stroke-width="3" stroke-linejoin="round"/>
  <path d="M25 13v10h12" fill="none" stroke="#1f2128" stroke-width="3" stroke-linejoin="round"/>
  <path d="M12 18c1-1 2-2 3-2l11-2c2 0 3 1 4 2l4 4 7-1c2 0 3 1 3 3v22c0 2-1 3-3 4l-27 5c-2 0-4-1-4-3L9 24c-1-3 1-5 3-6z" fill="#e23b2a"/>
  <path d="m16 8 5 5 4-9 7 8 7-7 2 12-26 4z" fill="#e23b2a"/>
  <circle cx="12" cy="8" r="2.4" fill="#e23b2a"/>
  <circle cx="25" cy="4" r="2.4" fill="#e23b2a"/>
  <circle cx="38" cy="6" r="2.4" fill="#e23b2a"/>
</svg>
