<svg xmlns="http://www.w3.org/2000/svg" aria-label="File Wala Tool icon" role="img" viewBox="0 0 64 64"><defs><linearGradient id="bg" x1="0%" x2="100%" y1="0%" y2="100%"><stop offset="0%" stop-color="#1f2b4d"/><stop offset="100%" stop-color="#101827"/></linearGradient><linearGradient id="accent" x1="0%" x2="100%" y1="0%" y2="100%"><stop offset="0%" stop-color="#ff6a3d"/><stop offset="100%" stop-color="#e23b2a"/></linearGradient></defs><rect width="64" height="64" fill="url(#bg)" rx="14"/><path fill="#f8fafc" d="M18 16h20l8 8v16c0 3-2 6-6 6H18c-3 0-6-3-6-6V22c0-3 3-6 6-6z"/><path fill="#dce5f3" d="M38 16v8h8z"/><rect width="18" height="3.6" x="20" y="30" fill="#c9d5e8" rx="1.8"/><rect width="14" height="3.6" x="20" y="36" fill="#c9d5e8" rx="1.8"/><circle cx="45" cy="45" r="8" fill="url(#accent)"/><path stroke="#fff" stroke-linecap="round" stroke-width="2.2" d="M41.7 45h6.6M45 41.7v6.6"/></svg>