<svg xmlns="http://www.w3.org/2000/svg" viewBox="0 0 980 260" role="img" aria-label="File Wala Tool logo">
  <defs>
    <linearGradient id="accent" x1="0%" y1="0%" x2="100%" y2="100%">
      <stop offset="0%" stop-color="#ff6a3d"/>
      <stop offset="100%" stop-color="#e23b2a"/>
    </linearGradient>
    <linearGradient id="dark" x1="0%" y1="0%" x2="100%" y2="100%">
      <stop offset="0%" stop-color="#1f2b4d"/>
      <stop offset="100%" stop-color="#101827"/>
    </linearGradient>
    <filter id="softShadow" x="-20%" y="-20%" width="140%" height="140%">
      <feDropShadow dx="0" dy="8" stdDeviation="8" flood-color="#0f172a" flood-opacity="0.16"/>
    </filter>
  </defs>

  <rect width="980" height="260" fill="none"/>

  <g transform="translate(36 38)" filter="url(#softShadow)">
    <rect x="0" y="0" width="184" height="184" rx="32" fill="url(#dark)"/>
    <path d="M44 45h78l34 34v60c0 12-10 22-22 22H44c-12 0-22-10-22-22V67c0-12 10-22 22-22z" fill="#f8fafc"/>
    <path d="M122 45v34h34z" fill="#dce5f3"/>
    <rect x="46" y="96" width="86" height="13" rx="6.5" fill="#c9d5e8"/>
    <rect x="46" y="119" width="64" height="13" rx="6.5" fill="#c9d5e8"/>
    <circle cx="152" cy="152" r="28" fill="url(#accent)"/>
    <path d="M142 152h20M152 142v20" stroke="#ffffff" stroke-width="6" stroke-linecap="round"/>
  </g>

  <g transform="translate(264 74)">
    <text x="0" y="72" font-family="'Segoe UI', 'Helvetica Neue', Arial, sans-serif" font-size="74" font-weight="800" letter-spacing="0.4" fill="#111827">File Wala</text>
    <text x="0" y="146" font-family="'Segoe UI', 'Helvetica Neue', Arial, sans-serif" font-size="74" font-weight="800" letter-spacing="0.4" fill="#e23b2a">Tool</text>
    <text x="2" y="178" font-family="'Segoe UI', Arial, sans-serif" font-size="22" font-weight="600" letter-spacing="2.8" fill="#64748b">FAST DOCUMENT UTILITIES</text>
  </g>
</svg>
