<svg xmlns="http://www.w3.org/2000/svg" aria-label="File Wala Tool logo" role="img" viewBox="0 0 980 260"><defs><linearGradient id="accent" x1="0%" x2="100%" y1="0%" y2="100%"><stop offset="0%" stop-color="#ff6a3d"/><stop offset="100%" stop-color="#e23b2a"/></linearGradient><linearGradient id="dark" x1="0%" x2="100%" y1="0%" y2="100%"><stop offset="0%" stop-color="#1f2b4d"/><stop offset="100%" stop-color="#101827"/></linearGradient><filter id="softShadow" width="140%" height="140%" x="-20%" y="-20%"><feDropShadow dx="0" dy="8" flood-color="#0f172a" flood-opacity=".16" stdDeviation="8"/></filter></defs><rect width="980" height="260" fill="none"/><g filter="url(#softShadow)" transform="translate(36 38)"><rect width="184" height="184" x="0" y="0" fill="url(#dark)" rx="32"/><path fill="#f8fafc" d="M44 45h78l34 34v60c0 12-10 22-22 22H44c-12 0-22-10-22-22V67c0-12 10-22 22-22z"/><path fill="#dce5f3" d="M122 45v34h34z"/><rect width="86" height="13" x="46" y="96" fill="#c9d5e8" rx="6.5"/><rect width="64" height="13" x="46" y="119" fill="#c9d5e8" rx="6.5"/><circle cx="152" cy="152" r="28" fill="url(#accent)"/><path stroke="#fff" stroke-linecap="round" stroke-width="6" d="M142 152h20M152 142v20"/></g><g><text x="0" y="72" fill="#111827" font-family="'Segoe UI', 'Helvetica Neue', Arial, sans-serif" font-size="74" font-weight="800" letter-spacing=".4" transform="translate(264 74)">File Wala</text><text x="0" y="146" fill="#e23b2a" font-family="'Segoe UI', 'Helvetica Neue', Arial, sans-serif" font-size="74" font-weight="800" letter-spacing=".4" transform="translate(264 74)">Tool</text><text x="2" y="178" fill="#64748b" font-family="'Segoe UI', Arial, sans-serif" font-size="22" font-weight="600" letter-spacing="2.8" transform="translate(264 74)">FAST DOCUMENT UTILITIES</text></g></svg>